<mxfile host="app.diagrams.net" modified="2020-05-19T03:08:35.046Z" agent="5.0 (Windows NT 10.0; Win64; x64) AppleWebKit/537.36 (KHTML, like Gecko) Chrome/81.0.4044.138 Safari/537.36" etag="hQAysVnEjmJcTszVXsw2" version="13.1.2" type="github">
  <diagram id="YHirjkAFMDylilwBBIxY" name="反向保理流程图">
    <mxGraphModel dx="813" dy="435" grid="1" gridSize="10" guides="1" tooltips="1" connect="1" arrows="1" fold="1" page="1" pageScale="1" pageWidth="827" pageHeight="1169" math="0" shadow="0">
      <root>
        <mxCell id="0" />
        <mxCell id="1" parent="0" />
        <mxCell id="B-ZJvdAAlf7jMu3-mvKu-8" style="edgeStyle=orthogonalEdgeStyle;rounded=0;orthogonalLoop=1;jettySize=auto;html=1;entryX=0.5;entryY=0;entryDx=0;entryDy=0;" edge="1" parent="1" source="B-ZJvdAAlf7jMu3-mvKu-1" target="B-ZJvdAAlf7jMu3-mvKu-3">
          <mxGeometry relative="1" as="geometry" />
        </mxCell>
        <mxCell id="B-ZJvdAAlf7jMu3-mvKu-1" value="开始" style="ellipse;whiteSpace=wrap;html=1;aspect=fixed;" vertex="1" parent="1">
          <mxGeometry x="160" y="40" width="40" height="40" as="geometry" />
        </mxCell>
        <mxCell id="B-ZJvdAAlf7jMu3-mvKu-9" style="edgeStyle=orthogonalEdgeStyle;rounded=0;orthogonalLoop=1;jettySize=auto;html=1;entryX=0.5;entryY=0;entryDx=0;entryDy=0;" edge="1" parent="1" source="B-ZJvdAAlf7jMu3-mvKu-3" target="B-ZJvdAAlf7jMu3-mvKu-6">
          <mxGeometry relative="1" as="geometry" />
        </mxCell>
        <mxCell id="B-ZJvdAAlf7jMu3-mvKu-3" value="核心企业上传&lt;br&gt;月度付款计划" style="rounded=0;whiteSpace=wrap;html=1;" vertex="1" parent="1">
          <mxGeometry x="125" y="120" width="110" height="40" as="geometry" />
        </mxCell>
        <mxCell id="B-ZJvdAAlf7jMu3-mvKu-4" style="edgeStyle=orthogonalEdgeStyle;rounded=0;orthogonalLoop=1;jettySize=auto;html=1;exitX=0.5;exitY=1;exitDx=0;exitDy=0;" edge="1" parent="1" source="B-ZJvdAAlf7jMu3-mvKu-3" target="B-ZJvdAAlf7jMu3-mvKu-3">
          <mxGeometry relative="1" as="geometry" />
        </mxCell>
        <mxCell id="B-ZJvdAAlf7jMu3-mvKu-10" style="edgeStyle=orthogonalEdgeStyle;rounded=0;orthogonalLoop=1;jettySize=auto;html=1;" edge="1" parent="1" source="B-ZJvdAAlf7jMu3-mvKu-6" target="B-ZJvdAAlf7jMu3-mvKu-7">
          <mxGeometry relative="1" as="geometry" />
        </mxCell>
        <mxCell id="B-ZJvdAAlf7jMu3-mvKu-6" value="后台分发应付账款&lt;br&gt;列表到供应商账户" style="rounded=0;whiteSpace=wrap;html=1;" vertex="1" parent="1">
          <mxGeometry x="125" y="200" width="110" height="40" as="geometry" />
        </mxCell>
        <mxCell id="B-ZJvdAAlf7jMu3-mvKu-17" style="edgeStyle=orthogonalEdgeStyle;rounded=0;orthogonalLoop=1;jettySize=auto;html=1;entryX=0.5;entryY=0;entryDx=0;entryDy=0;" edge="1" parent="1" source="B-ZJvdAAlf7jMu3-mvKu-7" target="B-ZJvdAAlf7jMu3-mvKu-15">
          <mxGeometry relative="1" as="geometry" />
        </mxCell>
        <mxCell id="B-ZJvdAAlf7jMu3-mvKu-7" value="供应商查看应收&lt;br&gt;账款并申请融资" style="rounded=0;whiteSpace=wrap;html=1;" vertex="1" parent="1">
          <mxGeometry x="125" y="280" width="110" height="40" as="geometry" />
        </mxCell>
        <mxCell id="B-ZJvdAAlf7jMu3-mvKu-14" value="后台生成应收&lt;br&gt;账款债权资产" style="rounded=0;whiteSpace=wrap;html=1;" vertex="1" parent="1">
          <mxGeometry x="125" y="440" width="110" height="40" as="geometry" />
        </mxCell>
        <mxCell id="B-ZJvdAAlf7jMu3-mvKu-18" style="edgeStyle=orthogonalEdgeStyle;rounded=0;orthogonalLoop=1;jettySize=auto;html=1;entryX=0.5;entryY=0;entryDx=0;entryDy=0;" edge="1" parent="1" source="B-ZJvdAAlf7jMu3-mvKu-15" target="B-ZJvdAAlf7jMu3-mvKu-14">
          <mxGeometry relative="1" as="geometry" />
        </mxCell>
        <mxCell id="B-ZJvdAAlf7jMu3-mvKu-15" value="供应商填写背景信&lt;br&gt;息并上传相关资料" style="rounded=0;whiteSpace=wrap;html=1;" vertex="1" parent="1">
          <mxGeometry x="125" y="360" width="110" height="40" as="geometry" />
        </mxCell>
        <mxCell id="B-ZJvdAAlf7jMu3-mvKu-19" value="应收账款资产&lt;br&gt;推送适配器" style="rounded=0;whiteSpace=wrap;html=1;" vertex="1" parent="1">
          <mxGeometry x="320" y="440" width="110" height="40" as="geometry" />
        </mxCell>
      </root>
    </mxGraphModel>
  </diagram>
</mxfile>
